<svg xmlns="http://www.w3.org/2000/svg" width="219.9" height="20.728" viewBox="0 0 219.9 20.728">
  <g id="그룹_1148" data-name="그룹 1148" transform="translate(-528 -45)">
    <g id="그룹_1" data-name="그룹 1" transform="translate(-29 -4)">
      <g id="구성_요소_1_27" data-name="구성 요소 1 – 27" transform="translate(557 49)">
        <path id="패스_1" data-name="패스 1" d="M83.89,63.457a9.68,9.68,0,0,0-6.716,2.438,8.375,8.375,0,0,0-2.71,6.491,8.744,8.744,0,0,0,2.668,6.648,10.569,10.569,0,0,0,13.664,0,8.713,8.713,0,0,0,2.623-6.559,8.407,8.407,0,0,0-2.745-6.606A9.907,9.907,0,0,0,83.89,63.457Zm6.057,9.04c0,2.607-.533,4.587-1.584,5.884A5.215,5.215,0,0,1,84.1,80.3a5.582,5.582,0,0,1-4.627-1.922c-1.032-1.3-1.555-3.284-1.555-5.91a9.365,9.365,0,0,1,1.555-5.856,6.058,6.058,0,0,1,8.908.049A9.4,9.4,0,0,1,89.947,72.5Z" transform="translate(-57.358 -62.682)" fill="#fff"/>
        <path id="패스_2" data-name="패스 2" d="M124.049,79.886a2.033,2.033,0,0,1-.61-.818l-.768-1.761L118,66.2h0l-1.18-2.812a.346.346,0,0,0-.261-.206.334.334,0,0,0-.3.089l-1.7,1.418a.527.527,0,0,0-.1.547l.481,1.184L111.1,75.616c-.362.852-.561,1.327-.6,1.451a9.4,9.4,0,0,1-1.261,2.5,2.421,2.421,0,0,1-1.479.691l-.262.037v1.145h5.62V80.252h-.306a1.855,1.855,0,0,1-1.138-.329,1.044,1.044,0,0,1-.393-.906,10.123,10.123,0,0,1,.946-2.917l.357-.878h5.989l1.214,2.934a6.643,6.643,0,0,1,.547,1.507c0,.29-.121.381-.24.43a4.475,4.475,0,0,1-1.528.157h-.306v1.186h7.236V80.28l-.276-.028A2.257,2.257,0,0,1,124.049,79.886Zm-8.47-11.912,2.522,6.076h-5.033Z" transform="translate(-32.631 -62.889)" fill="#fff"/>
        <path id="패스_3" data-name="패스 3" d="M195.808,65.643a9.912,9.912,0,0,0-6.783-2.411,9.689,9.689,0,0,0-6.718,2.438,8.375,8.375,0,0,0-2.71,6.491,8.747,8.747,0,0,0,2.668,6.648,10.558,10.558,0,0,0,13.664,0,8.707,8.707,0,0,0,2.623-6.559A8.413,8.413,0,0,0,195.808,65.643Zm-.727,6.631c0,2.607-.533,4.587-1.584,5.882a5.207,5.207,0,0,1-4.26,1.925,5.576,5.576,0,0,1-4.625-1.922c-1.033-1.3-1.555-3.287-1.555-5.912a9.339,9.339,0,0,1,1.555-5.853,6.054,6.054,0,0,1,8.906.047A9.4,9.4,0,0,1,195.081,72.274Z" transform="translate(21.348 -62.851)" fill="#fff"/>
        <path id="패스_4" data-name="패스 4" d="M74.793,71.727a5.838,5.838,0,0,0,2.041-1.04,3.576,3.576,0,0,0,1.3-2.869c0-2.842-2.429-4.282-7.225-4.282l-6.225.18v1.177h.63a3.453,3.453,0,0,1,1.5.182.87.87,0,0,1,.351.616,16.736,16.736,0,0,1,.112,2.588V80.944c-.033.227-.248,1.9.65,2.264a1.84,1.84,0,0,0,.685.143,1.332,1.332,0,0,0,.748-.224,2.622,2.622,0,0,0,.906-1.957h1.144a18.049,18.049,0,0,0,4.018-.362A4.7,4.7,0,0,0,78.011,79.2a4.509,4.509,0,0,0,1.014-2.936,4.186,4.186,0,0,0-1.5-3.275A6.073,6.073,0,0,0,74.793,71.727ZM74.533,66.1a4.107,4.107,0,0,1,.351,1.892,3.158,3.158,0,0,1-.876,2.5,5.578,5.578,0,0,1-3.466.773c-.065,0-.136,0-.215,0V64.775c.233-.012.463-.019.687-.019a6.088,6.088,0,0,1,2.5.358A2.314,2.314,0,0,1,74.533,66.1ZM75.739,76.2a3.95,3.95,0,0,1-.906,2.843,3.722,3.722,0,0,1-2.763.927,2.052,2.052,0,0,1-1.294-.257,1.25,1.25,0,0,1-.365-.8c-.056-.414-.084-1.425-.084-3V72.458c.222-.007.435-.012.636-.012a5.825,5.825,0,0,1,3.756.913A3.62,3.62,0,0,1,75.739,76.2Z" transform="translate(-64.681 -62.624)" fill="#fff"/>
        <path id="패스_5" data-name="패스 5" d="M98.766,64.818h.306a4.646,4.646,0,0,1,1.6.243,1.336,1.336,0,0,1,.771.56,3.375,3.375,0,0,1,.2,1.425v9.166L92.209,63.755l-.094-.121H86.687v1.184h.308a4.5,4.5,0,0,1,1.616.159.961.961,0,0,1,.406.647,11.148,11.148,0,0,1,.17,2.514v8.935a8.6,8.6,0,0,1-.107,1.854,1.178,1.178,0,0,1-.607.581,4.23,4.23,0,0,1-1.712.4l-.283.023V81.1h6.9V79.912h-.306a3.894,3.894,0,0,1-1.861-.344,1.369,1.369,0,0,1-.673-.67,7.378,7.378,0,0,1-.129-1.824V66.3L101.655,81.2a.427.427,0,0,0,.306.15.508.508,0,0,0,.058,0,.441.441,0,0,0,.3-.1l1.166-1.918a.388.388,0,0,0,.026-.491l-.378-.528a1.381,1.381,0,0,1-.271-.82V67.233a4.543,4.543,0,0,1,.147-1.429,1.241,1.241,0,0,1,.638-.61,4.167,4.167,0,0,1,1.565-.376l.282-.023V63.634H98.766Z" transform="translate(-48.364 -62.55)" fill="#fff"/>
        <path id="패스_6" data-name="패스 6" d="M115.688,65.229c.054-.22-.14-.36-.525-.64-.154-.11-.341-.245-.546-.409l-.86-.715a.371.371,0,0,0-.514-.04,6.151,6.151,0,0,1-1.843.43H98.37l-.1,4.664h1.145l.042-.257a6.419,6.419,0,0,1,.708-2.273,1.7,1.7,0,0,1,.873-.8,9.12,9.12,0,0,1,2.105-.145h2.191V76.623a17.251,17.251,0,0,1-.11,2.628.972.972,0,0,1-.4.657,2.551,2.551,0,0,1-1.329.224h-1.177v1.186h9.014V80.133H110.2a2.446,2.446,0,0,1-1.36-.241,1.03,1.03,0,0,1-.379-.715,20.987,20.987,0,0,1-.091-2.553V65.038h4.249a.071.071,0,0,1,.072.066,16.426,16.426,0,0,1-.374,2.682.409.409,0,0,0,.783.224c.86-2.292,2.056-2.5,2.107-2.5C115.368,65.484,115.636,65.442,115.688,65.229Z" transform="translate(-39.535 -62.77)" fill="#fff"/>
        <path id="패스_7" data-name="패스 7" d="M156.258,64.591c-.154-.112-.341-.247-.546-.411l-.859-.715a.373.373,0,0,0-.514-.04,6.158,6.158,0,0,1-1.845.43H139.466l-.1,4.664h1.145l.042-.257a6.415,6.415,0,0,1,.71-2.273,1.686,1.686,0,0,1,.873-.8,9.086,9.086,0,0,1,2.1-.145h2.191V76.623a16.582,16.582,0,0,1-.112,2.628.959.959,0,0,1-.4.657,2.559,2.559,0,0,1-1.331.224H143.41v1.186h9.014V80.132H151.3a2.441,2.441,0,0,1-1.36-.241,1.031,1.031,0,0,1-.381-.715,21.209,21.209,0,0,1-.089-2.553V65.038h4.249a.072.072,0,0,1,.072.066,17.41,17.41,0,0,1-.374,2.679.408.408,0,0,0,.782.227c.862-2.294,2.058-2.5,2.109-2.5.159-.024.427-.066.479-.28S156.645,64.869,156.258,64.591Z" transform="translate(-8.771 -62.77)" fill="#fff"/>
        <path id="패스_8" data-name="패스 8" d="M168.513,63.028a.347.347,0,0,0-.3.049,4.3,4.3,0,0,1-2.142,1.019l-3.266,0v1.161l.287.023a3.553,3.553,0,0,1,1.548.362,1.265,1.265,0,0,1,.563.733,8.2,8.2,0,0,1,.15,1.918v5.739a21.158,21.158,0,0,1-.135,2.831,3.8,3.8,0,0,1-.7,1.645,4.288,4.288,0,0,1-1.754,1.339,6.358,6.358,0,0,1-2.674.553,4.947,4.947,0,0,1-2.964-.806,3.15,3.15,0,0,1-1.317-1.838,20.489,20.489,0,0,1-.248-3.847V68.6a14.639,14.639,0,0,1,.124-2.588.791.791,0,0,1,.36-.563,3.69,3.69,0,0,1,1.485-.17h.642V64.1h-8.3v1.184h.691a3.453,3.453,0,0,1,1.5.182.854.854,0,0,1,.351.6,15.931,15.931,0,0,1,.114,2.535v5.244l-.014,1.729a7.081,7.081,0,0,0,.7,3.4,5.177,5.177,0,0,0,2.357,2.1,8.928,8.928,0,0,0,3.945.794,9.141,9.141,0,0,0,3.471-.617,5.771,5.771,0,0,0,2.378-1.7,4.735,4.735,0,0,0,1.033-2.193,22.482,22.482,0,0,0,.171-3.242v-5.6a10.477,10.477,0,0,1,.115-2.006,1.446,1.446,0,0,1,.567-.79,2.772,2.772,0,0,1,1.509-.439l.175-.016a.328.328,0,0,0,.283-.423l-.505-1.6A.324.324,0,0,0,168.513,63.028Z" transform="translate(-0.906 -63.014)" fill="#fff"/>
        <path id="패스_9" data-name="패스 9" d="M175.651,64.492a12.717,12.717,0,0,0-6-1.182c-.815,0-2.392.058-4.686.175l-3.064.152v1.168h.8a3.569,3.569,0,0,1,1.506.177.84.84,0,0,1,.348.6,17.037,17.037,0,0,1,.114,2.543V80.481l-.01.049c-.03.192-.262,1.906.647,2.275a1.788,1.788,0,0,0,.684.143,1.335,1.335,0,0,0,.684-.182,2.4,2.4,0,0,0,.953-1.82H169.6a30.988,30.988,0,0,0,3.289-.133,9.474,9.474,0,0,0,2.525-.678,6.914,6.914,0,0,0,2.364-1.612,7.436,7.436,0,0,0,1.6-2.654,10.191,10.191,0,0,0,.577-3.49,9.961,9.961,0,0,0-1.06-4.66A7.734,7.734,0,0,0,175.651,64.492Zm-7.942.072c.54-.03,1.079-.045,1.609-.045a11.115,11.115,0,0,1,3.128.367,5.088,5.088,0,0,1,2.156,1.352,6.59,6.59,0,0,1,1.513,2.607,11.924,11.924,0,0,1,.537,3.719,9.24,9.24,0,0,1-.913,4.372,4.721,4.721,0,0,1-2.219,2.236,9.054,9.054,0,0,1-3.5.577,3.876,3.876,0,0,1-1.806-.245,1.034,1.034,0,0,1-.418-.792c-.059-.463-.091-1.532-.091-3.179Z" transform="translate(8.101 -62.792)" fill="#fff"/>
        <path id="패스_10" data-name="패스 10" d="M132.18,75.694a7.957,7.957,0,0,1-1.173,2.817,3.638,3.638,0,0,1-1.5,1.3,5.664,5.664,0,0,1-2.072.322h-1.256c-1.336,0-1.717-.254-1.827-.4-.1-.135-.327-.727-.327-3.342V72.706h6.1l.08,0c.271.019.617.035.724-.2.04-.084.054-.222-.114-.4l-1.488-1.443-.051-.042a.306.306,0,0,0-.364-.047l-1.423.885a.283.283,0,0,1-.1.023c-.187.014-.671.007-1.033.007l-2.329,0V65.038h6.29a.07.07,0,0,1,.07.066,16.15,16.15,0,0,1-.374,2.679.407.407,0,0,0,.161.414.417.417,0,0,0,.24.079.4.4,0,0,0,.119-.019.407.407,0,0,0,.264-.247c.86-2.292,2.056-2.5,2.107-2.5.161-.024.428-.066.481-.28s-.14-.36-.525-.64c-.154-.11-.339-.245-.547-.411l-.859-.713a.373.373,0,0,0-.514-.04,6.124,6.124,0,0,1-1.843.428h-.421v0H118.8v1.184h.308a3.038,3.038,0,0,1,1.43.194.914.914,0,0,1,.348.647,18.73,18.73,0,0,1,.1,2.48v8.264a18.437,18.437,0,0,1-.094,2.572,1.212,1.212,0,0,1-.372.682c-.1.094-.425.255-1.413.255h-.656v1.186H133l.4-5.858h-1.168Z" transform="translate(-24.426 -62.77)" fill="#fff"/>
        <path id="패스_11" data-name="패스 11" d="M182.145,63.41H173.5a.262.262,0,0,0-.238.147.269.269,0,0,0,.042.29l1.04,1.119a.333.333,0,0,0,.411.119l1-.406a.258.258,0,0,1,.086-.017l.864-.01v.233c0,.017.087,1.722.087,3.032v8.262a19.054,19.054,0,0,1-.107,2.632.936.936,0,0,1-.4.654,2.556,2.556,0,0,1-1.329.224h-.8v1.184h8.315V79.688h-.8a2.455,2.455,0,0,1-1.364-.238,1.034,1.034,0,0,1-.376-.713,22.063,22.063,0,0,1-.091-2.558V67.916c0-.636.01-1.175.028-1.6l-.17-.007h.171V64.76a.152.152,0,0,1,.149-.152h2.158a.3.3,0,0,0,.3-.3v-.572A.328.328,0,0,0,182.145,63.41Zm-7.629,1.432v0h0Z" transform="translate(16.588 -62.717)" fill="#fff"/>
        <path id="패스_12" data-name="패스 12" d="M141.639,72.055a33.219,33.219,0,0,0-3.195-1.579,11.848,11.848,0,0,1-3.062-1.782,2.3,2.3,0,0,1-.783-1.75,2.393,2.393,0,0,1,.628-1.584,2.493,2.493,0,0,1,1.974-.708,3.685,3.685,0,0,1,2.569,1.026,5.621,5.621,0,0,1,1.57,2.84l.138.546.14-.278c.018,0,.037,0,.056,0h.512a.316.316,0,0,0,.316-.315V64.1a.334.334,0,0,0-.336-.334h-.511a.307.307,0,0,0-.313.278,2.28,2.28,0,0,1-.369,1.032,5.122,5.122,0,0,0-1.8-1.254,6.107,6.107,0,0,0-2.119-.365,4.7,4.7,0,0,0-3.375,1.284,4.3,4.3,0,0,0-1.345,3.223,4.841,4.841,0,0,0,.617,2.371,4.94,4.94,0,0,0,1.712,1.806,23.293,23.293,0,0,0,3.1,1.546,10.424,10.424,0,0,1,3.034,1.749,2.6,2.6,0,0,1,.769,1.908,2.913,2.913,0,0,1-.892,2.056,3.365,3.365,0,0,1-2.53.918c-2.406,0-4.059-.937-4.914-2.787a4.655,4.655,0,0,1,.114-3.123l.11-.32c.072-.311-.042-.49-.187-.561l-.028-.038h-.086a.2.2,0,0,0-.079,0,.632.632,0,0,0-.5.381l-.159.428c-.243.544-.874,1.322-1.52,1.341a.283.283,0,0,0-.2.1.273.273,0,0,0-.059.215c.08.581.963,5.59,7.411,5.59.107,0,.217,0,.327-.005a5.723,5.723,0,0,0,4.062-1.436,4.919,4.919,0,0,0,1.537-3.74,5.1,5.1,0,0,0-.636-2.563A4.712,4.712,0,0,0,141.639,72.055Z" transform="translate(-15.311 -62.682)" fill="#fff"/>
      </g>
    </g>
  </g>
</svg>
